<?xml version="1.0" encoding="UTF-8"?>
<svg xmlns="http://www.w3.org/2000/svg" width="4500" height="5400" viewBox="0 0 4500 5400" role="img" aria-labelledby="title desc">
  <title id="title">Guardian Wings memorial frame</title>
  <desc id="desc">Transparent 15 by 18 inch memorial artwork master designed for 300 DPI export.</desc>
  <defs>
    <linearGradient id="chrome" x1="0" y1="0" x2="1" y2="1"><stop stop-color="#ffffff"/><stop offset=".28" stop-color="#aeb9c4"/><stop offset=".55" stop-color="#f7f9fb"/><stop offset=".8" stop-color="#7d8a98"/><stop offset="1" stop-color="#e7edf3"/></linearGradient>
    <linearGradient id="night" x1="0" y1="0" x2="1" y2="1"><stop stop-color="#435168"/><stop offset="1" stop-color="#151a24"/></linearGradient>
  </defs>
  <g fill="url(#chrome)" stroke="#737f8c" stroke-width="14">
    <path d="M160 2600C520 1660 980 980 1870 620c-270 410-400 760-390 1080-180-190-370-290-580-300 180 170 300 360 365 585-210-100-405-105-585-15 140 180 220 365 230 555-280-80-525-55-750 75z"/>
    <path d="M4340 2600C3980 1660 3520 980 2630 620c270 410 400 760 390 1080 180-190 370-290 580-300-180 170-300 360-365 585 210-100 405-105 585-15-140 180-220 365-230 555 280-80 525-55 750 75z"/>
  </g>
  <g fill="none" stroke="url(#night)" stroke-width="24" opacity=".9">
    <path d="M400 2920c420 520 700 1080 820 1740"/>
    <path d="M4100 2920c-420 520-700 1080-820 1740"/>
  </g>
  <g fill="url(#chrome)" stroke="#8793a0" stroke-width="10">
    <path d="M580 3220c330 140 520 360 610 650-250-135-470-145-670-40 180 145 305 330 370 550-200-100-380-105-545-20 105-390 180-770 235-1140z"/>
    <path d="M3920 3220c-330 140-520 360-610 650 250-135 470-145 670-40-180 145-305 330-370 550 200-100 380-105 545-20-105-390-180-770-235-1140z"/>
  </g>
  <g fill="none" stroke="#dbe4ec" stroke-width="18">
    <ellipse cx="2250" cy="560" rx="650" ry="165"/>
    <ellipse cx="2250" cy="560" rx="500" ry="118" opacity=".7"/>
  </g>
  <g fill="#f8fbff">
    <path d="M1120 720l38 92 92 38-92 38-38 92-38-92-92-38 92-38z"/>
    <path d="M3380 820l30 74 74 30-74 30-30 74-30-74-74-30 74-30z"/>
    <path d="M760 4650l24 60 60 24-60 24-24 60-24-60-60-24 60-24z"/>
    <path d="M3740 4650l24 60 60 24-60 24-24 60-24-60-60-24 60-24z"/>
  </g>
</svg>